<?xml version="1.0" standalone="no"?><!DOCTYPE svg PUBLIC "-//W3C//DTD SVG 1.1//EN" "http://www.w3.org/Graphics/SVG/1.1/DTD/svg11.dtd"><svg class="icon" width="128px" height="128.00px" viewBox="0 0 1024 1024" version="1.1" xmlns="http://www.w3.org/2000/svg"><path d="M896 481.8432c0-88.256-125.632-159.8464-280.576-159.8464-154.9696 0-280.6016 71.488-280.6016 159.744 0 68.9024 76.7616 127.4624 184.192 149.888-39.5776 16.768-65.2672 43.5072-65.2672 73.7792 0 50.8928 72.448 92.096 161.7664 92.096 89.3056 0 161.7536-41.216 161.7536-92.096 0-30.272-25.6768-57.0112-65.2544-73.7792a556.16 556.16 0 0 0 19.072-4.224C828.352 602.3936 896 546.624 896 481.8432z" fill="#7dc5eb" /><path d="M500.1984 540.7744c212.1728 0 372.1984-78.0928 372.1984-181.7856 0-103.68-160.0256-181.696-372.1984-181.696C288.0384 177.2928 128 255.3984 128 359.0912c0 73.984 81.7408 134.7328 205.5552 163.584-64.6912 24.4224-105.1264 63.424-105.1264 109.056 0 54.8096 58.2656 100.032 146.9056 121.984-24.7168 14.5664-40.5376 34.496-40.5376 59.7888 0 52.7104 68.9024 82.5088 143.2704 87.5008 11.9808 0.768 22.144-9.5872 22.144-22.72 0-11.8784-8.448-21.9392-19.2768-22.6048-69.2864-4.224-100.7104-29.3248-104.832-42.176-7.9488-24.6272 62.9632-52.6976 124.096-45.4144 29.7088 0 58.6496-2.2016 86.3488-6.6176 11.4944-1.8176 19.072-14.08 16.96-26.6368V734.72c-2.0096-12.0704-12.4672-19.9296-23.4752-18.112-25.4976 4.032-52.224 6.0416-79.744 6.0416-131.8528 0-230.3616-48-230.3616-90.8416-0.1024-43.0336 98.4064-91.0464 230.272-91.0464zM169.3952 359.0912c0-64.4992 135.8848-136.3712 330.8032-136.3712 194.9184 0 330.8032 71.872 330.8032 136.3712 0 64.4864-135.8848 136.2688-330.8032 136.2688-194.9184 0-330.8032-71.7824-330.8032-136.2688z" fill="#000000" /><path d="M128 559.8464a31.0528 31.0528 0 1 0 62.0928 0 31.0528 31.0528 0 0 0-62.0928 0zM789.6192 146.2528a31.0528 31.0528 0 1 0 62.0928 0 31.0528 31.0528 0 0 0-62.0928 0zM706.9184 621.8496a31.0528 31.0528 0 1 0 62.0928 0 31.0528 31.0528 0 0 0-62.0928 0z" fill="#ff8b00" /></svg>